<?xml version="1.0" encoding="utf-8"?>
<!-- Generator: Adobe Illustrator 16.0.0, SVG Export Plug-In . SVG Version: 6.00 Build 0)  -->
<!DOCTYPE svg PUBLIC "-//W3C//DTD SVG 1.1//EN" "http://www.w3.org/Graphics/SVG/1.1/DTD/svg11.dtd">
<svg version="1.1" id="Layer_1" xmlns="http://www.w3.org/2000/svg" xmlns:xlink="http://www.w3.org/1999/xlink" x="0px" y="0px"
	 width="157.756px" height="138.292px" viewBox="0 0 157.756 138.292" enable-background="new 0 0 157.756 138.292"
	 xml:space="preserve">
<g id="VxFIH9_1_">
	<g>
		<path fill="#2787C9" d="M86.556,32.082c0.857,1.563,2.065,2.871,3.111,4.297c2.372,3.232,4.978,6.29,5.903,10.391
			c0.802,3.556,1.89,7.05,2.906,10.555c0.648,2.237,1.376,4.467,1.636,6.779c0.314,2.805,0.887,5.594,0.765,8.436
			c-0.052,1.211-0.229,2.431-1.569,2.949c-1.504,0.581-2.962,0.48-4.285-0.521c-1.268-0.959-2.2-2.218-2.979-3.571
			c-3.165-5.499-5.763-11.243-7.323-17.418c-0.271-1.073-0.808-1.891-1.779-2.503c-2.852-1.799-5.319-4.08-7.79-6.358
			c-3.033-2.796-6.115-5.539-9.188-8.292c-0.886-0.794-2.078-0.714-2.981,0.228c-1.009,1.051-1.592,2.354-1.997,3.739
			c-0.742,2.533-0.611,5.076-0.047,7.612c0.704,3.164,1.736,6.211,3.34,9.047c0.654,1.157,1.5,2.18,2.315,3.216
			c2.094,2.659,3.563,5.595,4.429,8.878c0.96,3.637,1.606,7.285,1.084,11.049c-0.435,3.122-1.688,4.802-4.982,5.725
			c-1.32,0.369-2.468-0.165-3.164-1.356c-0.459-0.785-0.782-1.629-0.935-2.519c-0.643-3.746-2.396-6.963-4.615-9.986
			c-1.159-1.579-2.228-3.228-3.673-4.566c-2.208-2.044-4.463-4.032-6.848-5.875c-1.123-0.867-2.172-1.849-3.156-2.873
			c-1.808-1.881-4.057-3.123-6.227-4.484c-3.189-2-6.27-4.134-8.768-7.001c-1.449-1.663-2.518-3.595-3.823-5.358
			c-0.834-1.126-1.604-2.306-2.517-3.364c-0.543-0.63-0.546-1.154-0.27-1.86c1.869-4.778,3.716-9.565,5.563-14.354
			c1.56-4.047,3.117-8.096,4.654-12.151c0.229-0.601,0.481-0.722,1.117-0.487c4.928,1.816,9.753,3.969,15.081,4.473
			c1.963,0.187,3.901,0.176,5.854-0.02c3.655-0.365,7.313-0.707,10.969-1.065c2.211-0.216,4.406-0.52,6.589-0.954
			c2.678-0.532,4.873,0.413,6.502,2.537c3.783,4.935,7.872,9.617,11.762,14.464c1.688,2.103,3.523,4.084,5.013,6.347
			c0.574,0.873,0.634,1.762,0.414,2.728c-0.3,1.325-0.806,2.572-1.418,3.779c-0.094,0.184-0.136,0.465-0.36,0.491
			c-0.287,0.035-0.354-0.278-0.467-0.471c-2.143-3.67-5.011-6.811-7.472-10.247c-0.06-0.084-0.157-0.141-0.237-0.209
			c-0.055-0.12-0.09-0.255-0.167-0.357c-1.976-2.616-3.625-5.442-5.339-8.229c-0.369-0.6-0.729-1.244-1.343-1.665
			c1.545,2.76,3.107,5.505,4.941,8.082C85.347,30.556,85.816,31.424,86.556,32.082z M68.039,81.239
			c-0.008-2.187-0.951-3.596-2.733-4.464c-0.745-0.362-1.53-0.615-2.359-0.623c-0.849-0.008-1.196,0.391-0.919,1.001
			c0.707,1.552,1.11,3.192,1.514,4.838c0.271,1.1,0.521,2.228,1.295,3.118c0.535,0.614,0.857,0.604,1.464,0.065
			C67.541,84.075,67.886,82.604,68.039,81.239z M99.903,67.709c-1.284,1.426-1.432,4.079-0.419,5.524
			c0.122,0.174,0.268,0.378,0.502,0.315c0.24-0.064,0.247-0.335,0.27-0.532C100.445,71.272,100.162,69.561,99.903,67.709z"/>
		<path fill="#2787C9" d="M134.659,98.691c-0.354-0.106-0.695-0.257-1.048-0.366c-1.672-0.519-3.311-1.125-4.829-1.998
			c-2.087-1.2-4.157-2.427-6.354-3.423c-1.273-0.578-2.604-0.998-3.924-1.447c-0.093-0.022-0.186-0.048-0.275-0.074
			c-1.301-0.064-2.6-0.274-3.89-0.477c-0.719-0.065-1.441-0.103-2.161-0.154c-0.088,0.013-0.174,0.021-0.257,0.03
			c-2.236,0.219-4.326,0.99-6.432,1.692c-2.683,0.895-5.318,1.979-8.249,1.68c-0.998-0.102-2.008-0.086-3.009-0.163
			c-1.923-0.147-3.858-0.188-5.757-0.573c-3.629-0.734-7.254-1.511-10.94-1.89c-2.544-0.262-4.866,0.229-6.447,2.515
			c-0.224,0.324-0.435,0.367-0.788,0.145c-1.477-0.931-3-1.79-4.459-2.748c-3.382-2.222-6.784-4.408-10.342-6.341
			c-2.675-1.453-5.376-2.854-8.373-3.553c-1.689-0.395-3.311-0.308-4.83,0.606c-1.355,0.815-1.653,2.349-0.713,3.61
			c0.59,0.792,1.356,1.406,2.07,2.071c1.382,1.285,2.823,2.51,3.975,4.02c0.094,0.086,0.185,0.175,0.272,0.266
			c0.628,0.454,1.258,0.904,1.88,1.365c0.148,0.109,0.21,0.214,0.215,0.313c0.148,0.111,0.296,0.224,0.442,0.337
			c0.292,0.046,0.628,0.311,1.116,0.741c0.442,0.391,0.892,0.772,1.347,1.148c0.965,0.674,1.939,1.329,2.868,2.07
			c0.61,0.487,1.204,1.11,1.717,1.813c0.104,0.099,0.205,0.2,0.304,0.305c0.342,0.204,0.624,0.487,0.927,0.746
			c1.545,1.322,2.976,2.776,4.607,4.001c3.574,2.683,7.335,5.098,10.99,7.663c2.576,1.808,5.201,3.544,7.354,5.883
			c1.428,1.552,2.759,3.219,4.626,4.294c1.003,0.577,2.089,0.912,3.261,0.77c1.604-0.195,3.174-0.569,4.735-0.98
			c6.16-1.62,12.271-3.458,18.641-4.143c2.696-0.289,5.368-0.42,8.043,0.207c2.251,0.527,4.417,1.283,6.54,2.175
			c0.645,0.271,0.972,0.209,1.188-0.55c0.675-2.364,1.435-4.704,2.15-7.057c1.394-4.579,2.774-9.162,4.171-13.739
			C135.144,99.08,135.093,98.822,134.659,98.691z M47.292,89.859c-0.141,0.064-0.252-0.04-0.347-0.13
			c-1.451-1.387-2.902-2.774-4.348-4.167c-0.12-0.116-0.344-0.253-0.172-0.452c0.131-0.151,0.36-0.101,0.524-0.024
			c0.454,0.212,0.913,0.423,1.339,0.685c0.63,0.386,1.247,0.797,1.844,1.232c0.91,0.663,1.269,1.409,1.265,2.508
			C47.396,89.637,47.439,89.792,47.292,89.859z M73.775,93.187c0.803-0.344,1.633-0.63,2.267-0.563
			c1.45,0.018,2.567,0.357,3.66,0.745c0.954,0.338,1.339,1.177,1.069,2.164c-0.487,1.784-0.985,3.565-1.507,5.34
			c-0.177,0.602-0.52,1.102-1.208,1.227c-2.488,0.455-5.988-1.859-6.569-4.343C71.047,95.878,71.995,93.951,73.775,93.187z
			 M103.716,109.499c-2.462-0.329-4.933-0.601-7.404-0.852c-1.141-0.116-2.269,0.121-3.384,0.342
			c-1.067,0.21-2.151,0.257-3.224,0.407c-2.27,0.319-4.045-0.758-5.751-2.016c-1.746-1.287-3.717-2.084-5.745-2.802
			c-1.84-0.65-3.712-1.238-5.395-2.279c-2.113-1.308-3.367-4.328-2.73-6.7c0.071-0.266,0.087-0.577,0.454-0.8
			c-0.134,0.81-0.394,1.532-0.317,2.294c0.237,2.362,1.473,4.022,3.568,5.075c1.779,0.896,3.687,1.464,5.558,2.116
			c2.024,0.706,4.044,1.421,5.975,2.357c1.511,0.732,3.155,0.619,4.748,0.748c4.69,0.382,9.364,0.9,14.026,1.531
			c1.959,0.266,3.92,0.444,5.9,0.259C107.921,109.722,105.834,109.781,103.716,109.499z"/>
		<path fill="#2787C9" d="M26.894,5.065c-2.401-0.884-4.782-1.823-7.171-2.743c-1.802-0.694-3.6-1.396-5.404-2.081
			c-1.028-0.391-1.071-0.384-1.46,0.609c-1.445,3.693-2.88,7.392-4.305,11.093C6.021,18.522-0.278,33.7,0.009,34.398
			c0.176,0.431,3.632,1.94,3.79,2c3.192,1.201,6.372,2.433,9.544,3.687c0.613,0.241,0.924,0.197,1.185-0.489
			c2.048-5.386,4.108-10.767,6.224-16.127c2.262-5.729,4.4-11.506,6.628-17.249C27.629,5.575,27.556,5.309,26.894,5.065z
			 M10.667,35.675c-1.16-0.105-2.285-0.708-2.277-2.317c0.002-1.301,0.996-2.321,2.273-2.331c1.275-0.009,2.295,1.018,2.3,2.315
			C12.968,34.601,11.879,35.786,10.667,35.675z"/>
		<path fill="#2787C9" d="M146.517,138.285c-0.359-0.132-0.821-0.329-1.3-0.474c-4.052-1.225-8.103-2.451-12.164-3.644
			c-0.675-0.198-0.804-0.479-0.601-1.139c2.292-7.458,4.566-14.923,6.827-22.391c1.188-3.923,2.351-7.854,3.506-11.788
			c0.175-0.595,0.401-0.818,1.067-0.612c4.423,1.366,8.855,2.703,13.291,4.026c0.6,0.179,0.716,0.436,0.534,1.032
			c-2.4,7.865-4.772,15.74-7.161,23.609c-1.091,3.594-2.199,7.182-3.309,10.77C147.123,137.956,147.107,138.347,146.517,138.285z
			 M139.349,128.215c-1.195-0.008-2.373,1.114-2.393,2.279c-0.021,1.2,1.187,2.4,2.398,2.384c1.162-0.016,2.259-1.141,2.261-2.321
			C141.62,129.226,140.649,128.223,139.349,128.215z"/>
		<path fill="#2787C9" d="M126.719,129.928c0.203-0.712,0.396-1.427,0.61-2.136c2.434-8.022,4.869-16.044,7.306-24.064
			c0.63-2.075,1.273-4.146,1.888-6.225c0.125-0.421,0.316-0.568,0.742-0.438c1.417,0.432,2.835,0.861,4.259,1.268
			c0.539,0.154,0.531,0.47,0.397,0.91c-0.625,2.047-1.227,4.102-1.848,6.149c-1.965,6.479-3.934,12.956-5.902,19.433
			c-0.654,2.151-1.326,4.296-1.967,6.451c-0.169,0.571-0.391,0.762-1.02,0.539c-1.295-0.459-2.624-0.818-3.938-1.227
			C126.937,130.491,126.628,130.366,126.719,129.928z"/>
		<path fill="#2787C9" d="M33.222,8.838c-0.041,0.117-0.107,0.318-0.183,0.515c-3.142,8.17-6.282,16.341-9.428,24.509
			c-0.827,2.146-1.688,4.279-2.493,6.435c-0.236,0.635-0.484,0.795-1.15,0.5c-1.231-0.544-2.506-0.993-3.777-1.443
			c-0.525-0.187-0.619-0.438-0.42-0.95c2.545-6.557,5.078-13.119,7.604-19.683c1.462-3.8,2.912-7.604,4.352-11.411
			c0.252-0.665,0.564-0.902,1.297-0.577c1.206,0.536,2.459,0.965,3.691,1.443C32.979,8.279,33.301,8.342,33.222,8.838z"/>
		<path fill="#3E484D" d="M83.305,88.848c-5.814,0.001-10.481-4.675-10.481-10.501c0.002-5.812,4.689-10.537,10.461-10.544
			c5.899-0.007,10.597,4.681,10.599,10.576C93.886,84.215,89.206,88.847,83.305,88.848z M83.394,87.028
			c4.834-0.007,8.686-3.894,8.669-8.749c-0.017-4.755-3.956-8.675-8.715-8.671c-4.799,0.004-8.706,3.933-8.7,8.75
			C74.654,83.201,78.521,87.034,83.394,87.028z"/>
		<path fill="#2787C9" d="M74.16,61.989c-1.646,0.212-2.965-2.069-2.814-3.507c0.127-1.197,0.716-2.163,1.455-3.027
			c1.859-2.172,4.191-3.79,6.512-5.415c0.368-0.258,0.63-0.101,0.925,0.114c0.898,0.653,1.792,1.315,2.715,1.935
			c0.607,0.407,0.979,0.951,1.175,1.635c0.298,1.043,0.562,2.097,0.895,3.128c0.182,0.562-0.211,0.691-0.533,0.898
			c-1.254,0.803-2.618,1.386-3.975,1.977c-1.671,0.729-3.289,1.591-5.063,2.065C75.013,61.908,74.579,62.024,74.16,61.989z
			 M79.128,59.562c-1.587-0.57-3.619-0.044-4.569,1.081c-0.117,0.138-0.301,0.285-0.219,0.477c0.112,0.262,0.371,0.146,0.56,0.104
			C76.351,60.903,77.667,60.246,79.128,59.562z"/>
		<path fill="#2787C9" d="M75.732,46.564c0.273,0.017,0.474,0.12,0.66,0.289c0.683,0.62,1.353,1.257,2.063,1.845
			c0.503,0.416,0.4,0.685-0.077,1.024c-1.313,0.935-2.591,1.915-3.776,3.009c-0.68,0.629-1.313,1.306-1.819,2.084
			c-0.23,0.354-0.496,0.431-0.925,0.413c-1.162-0.05-2.313-0.197-3.465-0.33c-0.262-0.029-0.526-0.062-0.78-0.13
			c-0.96-0.257-1.96-0.531-2.196-1.671c-0.281-1.35,0.113-2.523,1.249-3.362c1.162-0.858,2.501-1.374,3.869-1.78
			C72.253,47.446,73.999,47.024,75.732,46.564z M66.937,53.745c1.232,0.615,2.496,0.618,3.84,0.709
			C69.887,53.389,68.042,53.051,66.937,53.745z"/>
		<path fill="#2787C9" d="M70.649,42.403c0.429-0.066,0.893,0.094,1.289,0.441c0.753,0.662,1.502,1.331,2.247,2.001
			c0.379,0.341,0.379,0.575-0.162,0.767c-1.748,0.615-3.414,1.407-4.962,2.434c-0.271,0.18-0.546,0.331-0.885,0.239
			c-1.019-0.274-2.063-0.472-3.034-0.899c-1.416-0.625-1.683-2.188-0.585-3.293c0.441-0.444,0.989-0.7,1.565-0.899
			C67.554,42.696,69.039,42.484,70.649,42.403z"/>
		<path fill="#3E484D" d="M83.328,86.307c-4.526-0.01-7.98-3.479-7.964-7.999c0.017-4.542,3.562-7.989,8.2-7.976
			c4.058,0.011,7.694,3.659,7.802,7.588C91.504,82.992,87.511,86.463,83.328,86.307z M82.449,79.051
			c0.817-0.278,0.982,0.542,1.266,1.226c0.67,1.62,0.674,1.616-1.024,1.895c-0.262,0.042-0.686-0.034-0.558,0.435
			c0.1,0.363,0.23,0.81,0.792,0.679c0.41-0.096,0.829-0.174,1.224-0.315c0.379-0.135,0.696-0.267,0.862,0.27
			c0.073,0.234,0.288,0.303,0.52,0.213c0.196-0.075,0.314-0.227,0.211-0.436c-0.292-0.588,0.031-0.904,0.453-1.258
			c0.777-0.65,0.971-1.744,0.561-2.757c-0.37-0.911-1.235-1.611-2.163-1.39c-1.061,0.253-1.332-0.293-1.65-1.049
			c-0.662-1.574-0.684-1.581,1.029-1.939c0.414-0.086,0.383-0.271,0.25-0.55c-0.354-0.741-0.958-0.519-1.504-0.347
			c-0.458,0.144-0.863,0.31-1.117-0.284c-0.085-0.196-0.246-0.271-0.455-0.176c-0.154,0.071-0.308,0.214-0.246,0.363
			c0.298,0.724-0.278,1.052-0.642,1.464c-0.793,0.899-0.604,1.869-0.174,2.814C80.483,78.79,81.207,79.217,82.449,79.051z"/>
		<path fill="#3E484D" d="M85.935,80.098c-0.023,0.086-0.054,0.299-0.144,0.483c-0.137,0.281-0.304,0.613-0.657,0.6
			c-0.31-0.011-0.312-0.381-0.425-0.603c-0.214-0.42-0.384-0.863-0.604-1.28c-0.195-0.37-0.085-0.519,0.304-0.581
			C85.275,78.578,85.935,79.113,85.935,80.098z"/>
		<path fill="#3E484D" d="M80.695,76.617c0.043-0.233,0.031-0.501,0.204-0.729c0.381-0.5,0.695-0.468,0.946,0.108
			c0.201,0.46,0.4,0.922,0.593,1.386c0.183,0.44-0.053,0.582-0.444,0.585C81.272,77.972,80.705,77.388,80.695,76.617z"/>
	</g>
</g>
</svg>
